# xmcd
#
# Track frame offsets:
#	150
#	9221
#	23168
#	34929
#	44772
#	55575
#	68926
#	80168
#	93749
#	104386
#	117141
#	127730
#	139656
#	154046
#	163346
#	175434
#
# Disc length: 2498 seconds
#
# Revision: 1
# Processed by: cddbd v1.4PL0 Copyright (c) Steve Scherf et al.
# Submitted via: audiograbber 1.81.02
#
DISCID=d609c010
DTITLE=Dusan Barczi and Country club - V Mexiku, v taxiku
DYEAR=2002
DGENRE=Country
TTITLE0=Budem spievat, prosim
TTITLE1=Kratke ameriky
TTITLE2=Ked som brzdil vlaky
TTITLE3=Podme brasku na Aljasku
TTITLE4=Colorado, ma to rado
TTITLE5=Natrel som to Denise
TTITLE6=Ked plavate Amazonkou
TTITLE7=V Mexiku, v taxiku
TTITLE8=V country klube
TTITLE9=Medove pery
TTITLE10=Pat poslancov
TTITLE11=Vdova z Ruzinova
TTITLE12=V údoli rakov
TTITLE13=Bar Embasy
TTITLE14=Trafikant
TTITLE15=Babicka v Bratislave
EXTD=
EXTT0=
EXTT1=
EXTT2=
EXTT3=
EXTT4=
EXTT5=
EXTT6=
EXTT7=
EXTT8=
EXTT9=
EXTT10=
EXTT11=
EXTT12=
EXTT13=
EXTT14=
EXTT15=
PLAYORDER=
